<svg xmlns="http://www.w3.org/2000/svg" viewBox="0 0 32 32" fill="currentColor">
  <path d="M16.004 0h-.008C7.174 0 .002 7.174.002 16c0 3.5 1.128 6.744 3.046 9.38L1.05 31.3l6.128-1.96A15.9 15.9 0 0 0 16.004 32C24.83 32 32 24.826 32 16S24.83 0 16.004 0z" fill="none"/>
  <path d="M25.316 22.594c-.386 1.09-1.918 1.994-3.14 2.258-.836.178-1.928.32-5.604-1.204-4.7-1.948-7.726-6.724-7.962-7.034-.226-.31-1.9-2.53-1.9-4.826s1.166-3.42 1.636-3.9c.386-.394.856-.574 1.42-.574.182 0 .346.01.494.016.424.018.638.044.918.714.348.84 1.196 2.936 1.298 3.15.104.214.208.504.064.814-.134.32-.252.462-.466.71-.214.248-.418.438-.632.704-.196.232-.418.482-.17.91.248.42 1.102 1.816 2.366 2.942 1.632 1.454 2.958 1.918 3.43 2.114.352.146.772.11 1.03-.164.328-.354.732-.94 1.144-1.518.292-.414.66-.466 1.048-.32.396.138 2.482 1.17 2.906 1.382.424.212.706.314.81.49.102.178.102 1.018-.284 2.106z"/>
  <path d="M16.004 0h-.008C7.174 0 .002 7.174.002 16c0 3.5 1.128 6.744 3.046 9.38L1.05 31.3l6.128-1.96A15.9 15.9 0 0 0 16.004 32C24.83 32 32 24.826 32 16S24.83 0 16.004 0zm0 29.334c-2.86 0-5.518-.86-7.734-2.334l-5.4 1.728 1.752-5.222A13.24 13.24 0 0 1 2.67 16C2.67 8.65 8.654 2.666 16.004 2.666S29.336 8.65 29.336 16 23.354 29.334 16.004 29.334z"/>
</svg>
