<svg xmlns="http://www.w3.org/2000/svg" viewBox="0 0 32 32" fill="none" stroke="currentColor" stroke-width="1.8" stroke-linecap="round" stroke-linejoin="round">
  <path d="M16 4C9.4 4 4 9.4 4 16c0 2.1.6 4.1 1.6 5.9L4 28l6.3-1.6c1.7.9 3.6 1.4 5.7 1.4 6.6 0 12-5.4 12-12S22.6 4 16 4z"/>
  <path d="M11.5 11.8c.3-.6.6-.6.9-.6h.7c.2 0 .5 0 .7.5.3.6.9 2 1 2.2.1.2.2.4 0 .6-.1.3-.2.4-.4.6-.2.2-.4.5-.6.6-.2.2-.4.4-.2.8.2.4 1 1.6 2.1 2.6 1.4 1.3 2.6 1.7 3 1.9.4.2.6.1.8-.1.2-.2.9-1 1.1-1.4.2-.4.4-.3.7-.2.3.1 2 1 2.4 1.1.4.2.6.3.7.4.1.2.1 1-.3 2-.4 1-1.9 1.8-2.6 1.9-.7.1-1.4.2-4.7-1.1-3.9-1.6-6.4-5.6-6.6-5.9-.2-.3-1.6-2.1-1.6-4 0-1.9 1-2.9 1.4-3.3z"/>
</svg>
