<svg xmlns="http://www.w3.org/2000/svg" viewBox="0 0 24 24" fill="#1A1A1A">
  <path d="M12.04 2C6.58 2 2.13 6.45 2.13 11.91c0 1.75.46 3.48 1.32 5L2.04 22l5.24-1.38c1.46.8 3.1 1.22 4.76 1.22h.01c5.46 0 9.91-4.45 9.91-9.91C21.95 6.45 17.5 2 12.04 2m5.85 14.05c-.25.7-1.43 1.34-1.98 1.42-.51.08-1.15.11-1.85-.12-.43-.13-.98-.32-1.68-.62-2.96-1.28-4.89-4.25-5.04-4.45-.15-.2-1.2-1.6-1.2-3.05s.76-2.17 1.03-2.46c.27-.3.6-.37.8-.37.2 0 .4 0 .58.01.18.01.44-.07.68.52.25.6.87 2.06.94 2.21.08.15.13.33.03.53-.1.2-.15.33-.3.5-.15.18-.32.4-.46.53-.15.15-.31.31-.13.61.18.3.8 1.32 1.72 2.14 1.18 1.05 2.18 1.38 2.48 1.53.3.15.48.13.65-.08.18-.2.75-.88.95-1.18.2-.3.4-.25.68-.15.28.1 1.78.84 2.08.99.3.15.5.23.58.35.08.13.08.75-.17 1.45"/>
</svg>
